<mxfile host="app.diagrams.net" modified="2023-04-04T01:35:11.314Z" agent="Mozilla/5.0 (Macintosh; Intel Mac OS X 10_15_7) AppleWebKit/537.36 (KHTML, like Gecko) Chrome/111.0.0.0 Safari/537.36" version="21.1.4" etag="cA_GDTm0T1OVl8v4tOW2" type="github">
  <diagram name="第 1 页" id="w1llwFXQZPU366RBGywO">
    <mxGraphModel>
      <root>
        <mxCell id="0" />
        <mxCell id="1" parent="0" />
      </root>
    </mxGraphModel>
  </diagram>
</mxfile>
